<?xml version="1.0" encoding="UTF-8" standalone="no"?>
<!-- Generator: Adobe Illustrator 22.0.1, SVG Export Plug-In . SVG Version: 6.00 Build 0)  -->
<svg xmlns:dc="http://purl.org/dc/elements/1.1/" xmlns:cc="http://creativecommons.org/ns#" xmlns:rdf="http://www.w3.org/1999/02/22-rdf-syntax-ns#" xmlns:svg="http://www.w3.org/2000/svg" xmlns="http://www.w3.org/2000/svg" xmlns:sodipodi="http://sodipodi.sourceforge.net/DTD/sodipodi-0.dtd" xmlns:inkscape="http://www.inkscape.org/namespaces/inkscape" version="1.1" id="Capa_1" x="0px" y="0px" viewBox="0 0 37.410973 41.000001" xml:space="preserve" sodipodi:docname="logo6.svg" width="37.410973" height="41" inkscape:version="0.92.3 (2405546, 2018-03-11)"><metadata id="metadata79"><rdf:RDF><cc:Work rdf:about=""><dc:format>image/svg+xml</dc:format><dc:type rdf:resource="http://purl.org/dc/dcmitype/StillImage"/><dc:title/></cc:Work></rdf:RDF></metadata><defs id="defs77"/><sodipodi:namedview pagecolor="#ffffff" bordercolor="#666666" borderopacity="1" objecttolerance="10" gridtolerance="10" guidetolerance="10" inkscape:pageopacity="0" inkscape:pageshadow="2" inkscape:window-width="1920" inkscape:window-height="1020" id="namedview75" showgrid="false" fit-margin-top="0" fit-margin-left="0" fit-margin-right="0" fit-margin-bottom="0" inkscape:zoom="15.558303" inkscape:cx="35.248164" inkscape:cy="26.218016" inkscape:window-x="0" inkscape:window-y="32" inkscape:window-maximized="1" inkscape:current-layer="Capa_1"/>
<style type="text/css" id="style2">
	.st0{fill:#116311;}
	.st1{fill:#FFFFFF;stroke:#E5E5E5;stroke-miterlimit:10;}
	.st2{fill:#E5E5E5;}
	.st3{fill:#237D26;}
	.st4{fill:#00AA4F;}
	.st5{fill:#FFFFFF;}
</style>
<g id="g42" transform="matrix(0.17474694,0,0,0.17474694,-0.83122119,-0.69461909)">
	<rect x="6.0999999" y="73" class="st0" width="211.3" height="165.2" id="rect4" style="fill:#116311"/>
	<path class="st0" d="m 6.1,73 99,-67 c 4,-2.7 9.3,-2.7 13.3,0 l 99,67" id="path6" style="fill:#116311;fill-opacity:1" inkscape:connector-curvature="0"/>
	<g id="g30">
		<rect x="28.700001" y="38.400002" class="st1" width="167" height="169.7" id="rect8" style="fill:#ffffff;stroke:#e5e5e5;stroke-miterlimit:10"/>
		<g id="g28">
			<rect x="42.099998" y="103.4" class="st2" width="143.5" height="2.8" id="rect10" style="fill:#e5e5e5"/>
			<rect x="42.099998" y="95.099998" class="st2" width="143.5" height="2.8" id="rect12" style="fill:#e5e5e5"/>
			<rect x="42.099998" y="85.900002" class="st2" width="143.5" height="2.8" id="rect14" style="fill:#e5e5e5"/>
			<rect x="42.099998" y="77.099998" class="st2" width="143.5" height="2.8" id="rect16" style="fill:#e5e5e5"/>
			<rect x="42.099998" y="68.599998" class="st2" width="143.5" height="2.8" id="rect18" style="fill:#e5e5e5"/>
			<rect x="42.099998" y="60" class="st2" width="143.5" height="2.8" id="rect20" style="fill:#e5e5e5"/>
			<rect x="42.099998" y="130.2" class="st2" width="143.5" height="2.8" id="rect22" style="fill:#e5e5e5"/>
			<rect x="42.099998" y="120.5" class="st2" width="143.5" height="2.8" id="rect24" style="fill:#e5e5e5"/>
			<rect x="42.099998" y="111.7" class="st2" width="143.5" height="2.8" id="rect26" style="fill:#e5e5e5"/>
		</g>
	</g>
	<polyline class="st3" points="6.1,73 111.8,155.6 6.1,238.1  " id="polyline32" style="fill:#007a33;fill-opacity:1;stroke:#ffffff;stroke-opacity:1;stroke-width:2.28902435;stroke-miterlimit:4;stroke-dasharray:none"/>
	<polyline class="st3" points="217.4,238.1 111.8,155.6 217.4,73  " id="polyline34" style="fill:#007a33;fill-opacity:1;stroke:#ffffff;stroke-opacity:1;stroke-width:2.28902435;stroke-miterlimit:4;stroke-dasharray:none"/>
	<path class="st4" d="m 6.1,238.1 101.6,-87.8 c 2.4,-2 5.9,-2 8.2,0 l 101.6,87.8 z" id="path36" style="fill:#007a33;fill-opacity:1;stroke:#ffffff;stroke-opacity:1;stroke-width:2.71821641;stroke-miterlimit:4;stroke-dasharray:none" inkscape:connector-curvature="0"/>
	<rect x="28.700001" y="38.400002" class="st2" width="167" height="9.6000004" id="rect38" style="fill:#e5e5e5"/>
	<rect x="31.5" y="39.5" class="st5" width="57.900002" height="6.6999998" id="rect40" style="fill:#ffffff"/>
</g>
<g id="g44" transform="translate(-4.7567139,-197.6)">
</g>
<g id="g46" transform="translate(-4.7567139,-197.6)">
</g>
<g id="g48" transform="translate(-4.7567139,-197.6)">
</g>
<g id="g50" transform="translate(-4.7567139,-197.6)">
</g>
<g id="g52" transform="translate(-4.7567139,-197.6)">
</g>
<g id="g54" transform="translate(-4.7567139,-197.6)">
</g>
<g id="g56" transform="translate(-4.7567139,-197.6)">
</g>
<g id="g58" transform="translate(-4.7567139,-197.6)">
</g>
<g id="g60" transform="translate(-4.7567139,-197.6)">
</g>
<g id="g62" transform="translate(-4.7567139,-197.6)">
</g>
<g id="g64" transform="translate(-4.7567139,-197.6)">
</g>
<g id="g66" transform="translate(-4.7567139,-197.6)">
</g>
<g id="g68" transform="translate(-4.7567139,-197.6)">
</g>
<g id="g70" transform="translate(-4.7567139,-197.6)">
</g>
<g id="g72" transform="translate(-4.7567139,-197.6)">
</g>
<path style="fill:#007a33;fill-opacity:1;stroke:none;stroke-width:0.94247997;stroke-miterlimit:4;stroke-dasharray:none;stroke-opacity:1" d="m 8.3848952,18.653185 c 0.032021,-0.12583 0.4648916,-1.003424 0.6549481,-1.327905 0.4863882,-0.830429 1.0008087,-1.494197 1.6991167,-2.192461 1.955763,-1.955632 4.440513,-3.085204 7.124008,-3.238588 0.575917,-0.03292 1.674996,0.0068 2.193799,0.07919 2.157788,0.301255 4.212634,1.256528 5.813088,2.702431 0.905478,0.818041 1.602238,1.672023 2.191332,2.685766 0.253286,0.435911 0.656706,1.273168 0.638989,1.326263 -0.0053,0.01522 -0.103414,-0.08318 -0.21864,-0.218718 -0.72109,-0.848388 -1.784446,-1.80466 -2.649766,-2.382969 -1.572605,-1.050988 -3.291854,-1.751262 -5.031103,-2.049268 -0.838495,-0.143678 -1.214461,-0.172287 -2.262882,-0.172287 -1.080075,0 -1.475569,0.03195 -2.325219,0.187773 -0.902487,0.165541 -1.957836,0.480042 -2.743732,0.817652 -1.756861,0.754751 -3.463144,1.985438 -4.6605703,3.361529 -0.1477721,0.169925 -0.3080379,0.351733 -0.3559392,0.40403 -0.084779,0.09252 -0.086616,0.09299 -0.067456,0.01758 z" id="path856-3" inkscape:connector-curvature="0"/><path style="fill:#007a33;fill-opacity:1;stroke:none;stroke-width:0.94247997;stroke-miterlimit:4;stroke-dasharray:none;stroke-opacity:1" d="m 16.756855,22.159386 c -0.01838,-0.02963 0.164833,-0.663946 0.721144,-2.498617 0.714503,-2.356009 1.038605,-3.394787 1.059235,-3.394787 0.0105,0 0.206829,0.603388 0.433578,1.340863 0.598596,1.947332 1.325277,4.34607 1.348165,4.450263 l 0.021,0.08995 -0.257223,0.01995 c -0.399142,0.03108 -3.304872,0.02441 -3.324663,-0.0076 z" id="path858" inkscape:connector-curvature="0"/><path style="fill:#007a33;fill-opacity:1;stroke:none;stroke-width:1.88495994;stroke-miterlimit:4;stroke-dasharray:none;stroke-opacity:1" d="m 31.601812,15.923815 c -0.462005,-0.591569 -1.91298,-2.04515 -2.5705,-2.575109 -1.299738,-1.047602 -3.175736,-2.115302 -4.703721,-2.677077 -3.695772,-1.3587791 -7.805544,-1.3660631 -11.510635,-0.02047 -2.677929,0.9726 -5.224702,2.751587 -7.0365772,4.915208 -0.3015024,0.360039 -0.5594867,0.64331 -0.5732929,0.629491 -0.036221,-0.03625 0.2430498,-0.57153 0.6943716,-1.33081 1.5427881,-2.595456 4.0491923,-4.79756 6.7914815,-5.9669051 1.154748,-0.492404 2.64701,-0.909733 3.855854,-1.078338 0.921306,-0.128506 3.130302,-0.1268 4.010846,0.0031 4.768367,0.703393 8.764278,3.5239241 11.044929,7.7960901 0.178481,0.334228 0.312972,0.619128 0.298982,0.633113 -0.01312,0.01391 -0.149872,-0.133783 -0.301738,-0.328362 z" id="path860-6" inkscape:connector-curvature="0"/></svg>