<?xml version="1.0" encoding="UTF-8" standalone="no"?>
<!-- Created with Inkscape (http://www.inkscape.org/) -->
<svg xmlns:dc="http://purl.org/dc/elements/1.1/" xmlns:cc="http://creativecommons.org/ns#" xmlns:rdf="http://www.w3.org/1999/02/22-rdf-syntax-ns#" xmlns:svg="http://www.w3.org/2000/svg" xmlns="http://www.w3.org/2000/svg" xmlns:sodipodi="http://sodipodi.sourceforge.net/DTD/sodipodi-0.dtd" xmlns:inkscape="http://www.inkscape.org/namespaces/inkscape" width="39.298805" height="24.382999" viewBox="0 0 10.397809 6.4513354" version="1.1" id="svg1573" sodipodi:docname="logo8.svg" inkscape:version="0.92.3 (2405546, 2018-03-11)">
  <defs id="defs1567"/>
  <sodipodi:namedview id="base" pagecolor="#ffffff" bordercolor="#666666" borderopacity="1.0" inkscape:pageopacity="0.0" inkscape:pageshadow="2" inkscape:zoom="7.9195959" inkscape:cx="6.3390038" inkscape:cy="16.641461" inkscape:document-units="px" inkscape:current-layer="layer1" showgrid="false" fit-margin-top="0" fit-margin-left="0" fit-margin-right="0" fit-margin-bottom="0" inkscape:window-width="1920" inkscape:window-height="1020" inkscape:window-x="0" inkscape:window-y="32" inkscape:window-maximized="1" units="px"/>
  <metadata id="metadata1570">
    <rdf:RDF>
      <cc:Work rdf:about="">
        <dc:format>image/svg+xml</dc:format>
        <dc:type rdf:resource="http://purl.org/dc/dcmitype/StillImage"/>
        <dc:title/>
      </cc:Work>
    </rdf:RDF>
  </metadata>
  <g inkscape:label="Capa 1" inkscape:groupmode="layer" id="layer1" transform="translate(-23.287009,-75.362565)">
    <rect style="fill:#ffffff;fill-opacity:1;stroke:#0a8137;stroke-width:0.05845525;stroke-miterlimit:4;stroke-dasharray:none;stroke-opacity:1" id="rect2153" width="10.339354" height="6.39288" x="23.316236" y="75.391792"/>
    <path style="fill:#007a33;fill-opacity:1;stroke-width:0.03205474" d="m 27.263073,81.475269 -3.493966,-0.01729 v -2.852871 -2.852871 h 4.760129 4.760127 l 0.0082,2.860884 0.0082,2.860883 H 32.12355 c -0.650206,0 -1.223662,0.0041 -1.274349,0.0092 -0.05068,0.0051 -1.664442,0.0015 -3.586124,-0.008 z m -2.618952,-0.0571 c -0.135796,-0.006 -0.366591,-0.0061 -0.512876,-6.2e-5 -0.146285,0.0059 -0.03518,0.01084 0.246902,0.01089 0.282081,3.1e-5 0.40177,-0.0046 0.265974,-0.01084 z m 4.680887,-2.45e-4 c -0.787618,-0.0046 -2.085835,-0.0046 -2.884927,-1e-5 -0.799091,0.0046 -0.154677,0.0087 1.432032,0.0087 1.58671,0 2.240512,-0.0041 1.452895,-0.0087 z m 3.283192,3.6e-5 c -0.321748,-0.0053 -0.848248,-0.0053 -1.169998,0 -0.321749,0.0052 -0.0585,0.0095 0.584999,0.0095 0.643499,0 0.906749,-0.0041 0.584999,-0.0095 z m -7.733204,-2.81283 v -2.772736 h -0.496849 -0.496848 v 2.772736 2.772731 h 0.496848 0.496849 z m -0.59575,2.632908 c -0.0092,-0.02399 -0.01237,-0.128448 -0.007,-0.232084 0.0077,-0.149507 0.02137,-0.190638 0.06599,-0.199131 0.03505,-0.0067 0.06751,0.01739 0.08612,0.06379 0.02224,0.0555 0.03039,0.0602 0.0319,0.01842 0.0011,-0.03085 0.02367,-0.0561 0.05011,-0.0561 0.03816,0 0.04808,0.04628 0.04808,0.224385 0,0.183942 -0.0092,0.224381 -0.05108,0.224381 -0.0281,0 -0.05929,-0.03137 -0.06933,-0.06975 l -0.01824,-0.06977 -0.02581,0.06977 c -0.02907,0.07857 -0.08551,0.09187 -0.110746,0.0261 z m 0.233764,-0.316584 c -0.0077,-0.03988 -0.01423,-0.01481 -0.01459,0.05572 -3.52e-4,0.07052 0.0059,0.103141 0.01394,0.07249 0.008,-0.03065 0.0083,-0.08834 6.19e-4,-0.128221 z m -0.102808,0.07175 c -0.0109,-0.01764 -0.03424,-0.03203 -0.05186,-0.03203 -0.01763,0 -0.02314,0.01444 -0.01224,0.03203 0.0109,0.01765 0.03424,0.03204 0.05186,0.03204 0.01763,0 0.02314,-0.01444 0.01224,-0.03204 z m -0.111064,-0.38255 c -0.05124,-0.09575 -0.04021,-0.311037 0.01896,-0.37022 0.04099,-0.04097 0.05099,-0.110632 0.04676,-0.325442 -0.0048,-0.246994 1.46e-4,-0.272229 0.05204,-0.262209 0.04878,0.0094 0.05815,0.04855 0.06233,0.260212 0.0032,0.158842 0.02465,0.29071 0.05936,0.363859 0.05642,0.118897 0.04767,0.270763 -0.02031,0.352678 -0.05272,0.06353 -0.18095,0.05248 -0.21914,-0.01888 z m 0.191844,-0.01893 c 0.05893,-0.071 0.02539,-0.07916 -0.04071,-0.0099 -0.03085,0.0323 -0.04344,0.05877 -0.02797,0.05877 0.01547,0 0.04638,-0.02198 0.06868,-0.04886 z m -0.0327,-0.16139 c 0,-0.114476 -0.04286,-0.147826 -0.07668,-0.05966 -0.02553,0.06651 0.01131,0.210373 0.04804,0.187667 0.01575,-0.0098 0.02863,-0.06733 0.02863,-0.127999 z m -0.138061,-0.03756 c -0.0081,-0.03122 -0.01531,-0.01341 -0.01596,0.03947 -6.81e-4,0.05289 0.006,0.07841 0.01477,0.0567 0.0088,-0.02172 0.0093,-0.06497 0.0012,-0.09616 z m 0.09691,-0.609651 c -0.0073,-0.0485 -0.01335,-0.0088 -0.01335,0.08815 0,0.09697 0.006,0.136635 0.01335,0.08815 0.0073,-0.0485 0.0073,-0.127818 0,-0.1763 z m -0.116995,-0.356635 c -0.114521,-0.213984 0.06543,-0.532641 0.215842,-0.382226 0.05414,0.05414 0.04791,0.153863 -0.0096,0.153863 -0.02645,0 -0.04808,-0.01445 -0.04808,-0.03203 0,-0.01764 -0.01443,-0.03204 -0.03205,-0.03204 -0.01763,0 -0.03205,0.05051 -0.03205,0.11219 0,0.108016 0.03888,0.146897 0.08014,0.08013 0.03944,-0.06382 0.08416,-0.03003 0.07425,0.05609 -0.0084,0.07302 -0.02766,0.08985 -0.112191,0.09804 -0.07556,0.0073 -0.110921,-0.0067 -0.136233,-0.05399 z m 0.07421,-0.310164 c 0.01095,-0.02853 0.0056,-0.04138 -0.01261,-0.03018 -0.01743,0.01078 -0.03169,0.03318 -0.03169,0.04974 0,0.04612 0.02298,0.03596 0.04429,-0.01961 z m -0.06978,-0.468511 c 0.0088,-0.217715 0.01491,-0.235804 0.08336,-0.245504 0.04064,-0.0058 0.09473,0.0068 0.120205,0.02797 0.06819,0.05659 0.05853,0.21413 -0.01555,0.253779 -0.03403,0.01821 -0.06648,0.06545 -0.07212,0.104978 -0.0056,0.03952 -0.03616,0.0768 -0.06781,0.08284 -0.0518,0.0099 -0.05661,-0.01254 -0.04808,-0.224055 z m 0.04739,0.09553 c -0.01023,-0.02559 -0.01783,-0.01795 -0.01937,0.01935 -0.0014,0.03379 0.0062,0.05272 0.01683,0.04205 0.01065,-0.01063 0.01179,-0.03828 0.0025,-0.06144 z m 0.143776,-0.257849 c -0.02379,-0.02379 -0.02796,-0.01124 -0.01402,0.04205 0.01134,0.04334 0.02587,0.05788 0.03387,0.0339 0.0077,-0.02311 -0.0012,-0.05729 -0.01986,-0.07591 z m -0.19112,-0.44936 0.0094,-0.232397 h 0.109521 c 0.123548,0 0.174874,0.07463 0.07016,0.102021 -0.07732,0.02023 -0.09144,0.07428 -0.0194,0.07428 0.02645,0 0.04808,0.01486 0.04808,0.03307 0,0.01821 -0.02164,0.04138 -0.04808,0.05149 -0.07061,0.02709 -0.05861,0.107758 0.01603,0.107758 0.03561,0 0.06411,0.02136 0.06411,0.04808 0,0.03483 -0.03578,0.04808 -0.129624,0.04808 h -0.129623 z m 0.177038,0.180976 c -0.01065,-0.01063 -0.0383,-0.01181 -0.06144,-0.0025 -0.02557,0.01022 -0.01797,0.01785 0.01937,0.01935 0.03379,0.0015 0.05273,-0.0062 0.04207,-0.01682 z m -0.181517,-0.617751 c -0.11452,-0.213979 0.06543,-0.532642 0.215842,-0.38222 0.05414,0.05414 0.04791,0.153862 -0.0096,0.153862 -0.02645,0 -0.04808,-0.01444 -0.04808,-0.03204 0,-0.01765 -0.01442,-0.03203 -0.03205,-0.03203 -0.01763,0 -0.03205,0.05051 -0.03205,0.112191 0,0.108016 0.03888,0.146892 0.08014,0.08013 0.03944,-0.06382 0.08416,-0.03003 0.07425,0.05609 -0.0084,0.07301 -0.02766,0.08985 -0.112191,0.09804 -0.07556,0.0073 -0.110921,-0.0067 -0.136233,-0.05399 z m 0.07421,-0.31016 c 0.01095,-0.02853 0.0056,-0.04138 -0.0126,-0.03018 -0.01743,0.01078 -0.03169,0.03318 -0.03169,0.04973 0,0.04612 0.02298,0.03596 0.04429,-0.01961 z m -0.06973,-0.471142 0.0094,-0.232398 h 0.109521 c 0.123548,0 0.174874,0.07464 0.07016,0.102021 -0.07732,0.02023 -0.09144,0.07428 -0.0194,0.07428 0.02645,0 0.04808,0.01486 0.04808,0.03307 0,0.01816 -0.02164,0.04138 -0.04808,0.05149 -0.07061,0.02709 -0.05861,0.107752 0.01603,0.107752 0.03561,0 0.06411,0.02136 0.06411,0.04808 0,0.03483 -0.03578,0.04808 -0.129624,0.04808 h -0.129623 z m 0.177038,0.180974 c -0.01065,-0.01063 -0.0383,-0.01181 -0.06144,-0.0025 -0.02557,0.01022 -0.01797,0.01786 0.01937,0.01935 0.03379,0.0015 0.05273,-0.0062 0.04207,-0.01682 z m -0.177038,-0.790015 c 0.0091,-0.224185 0.01239,-0.232745 0.09354,-0.242155 0.109647,-0.01269 0.200963,0.07631 0.171089,0.166797 -0.01223,0.03704 -0.02022,0.121436 -0.01774,0.187548 0.0033,0.08829 -0.0085,0.120207 -0.04437,0.120207 -0.02687,0 -0.04885,-0.01734 -0.04885,-0.03848 0,-0.02993 -0.0085,-0.02993 -0.03847,0 -0.0946,0.09461 -0.124829,0.0437 -0.115198,-0.193929 z m 0.04734,0.09817 c -0.01023,-0.02559 -0.01783,-0.01796 -0.01937,0.01935 -0.0014,0.03379 0.0062,0.05272 0.01683,0.04205 0.01065,-0.01063 0.01179,-0.03828 0.0025,-0.06143 z m 6.38905,4.092989 v -0.977672 h -2.868898 -2.868899 v 0.977672 0.977667 h 2.868899 2.868898 z m -1.14057,0.777067 c -0.01336,-0.0421 -0.0072,-0.07393 0.01573,-0.08158 0.02849,-0.0095 0.02865,-0.02337 6.81e-4,-0.0571 -0.0204,-0.02461 -0.02792,-0.08065 -0.01675,-0.125103 0.02329,-0.09276 0.145522,-0.111757 0.211059,-0.03276 0.03275,0.03947 0.02697,0.05245 -0.03327,0.07473 -0.05869,0.02172 -0.06305,0.03075 -0.02234,0.04639 0.02906,0.01114 0.05809,-2.45e-4 0.06825,-0.02668 0.02693,-0.07017 0.244069,-0.06202 0.244069,0.0092 0,0.04278 0.01222,0.03736 0.05424,-0.02404 0.07258,-0.106056 0.106074,-0.12627 0.210214,-0.126848 0.05721,-3.68e-4 0.08815,0.01641 0.08815,0.04757 0,0.02647 0.02834,0.04808 0.06298,0.04808 0.07815,0 0.13655,0.103213 0.123309,0.217951 -0.0096,0.08323 -0.01818,0.08693 -0.22236,0.09595 -0.205148,0.0091 -0.2129,0.0066 -0.227951,-0.07212 -0.0086,-0.04483 -0.0032,-0.08151 0.01202,-0.08151 0.01519,0 0.02715,-0.02523 0.02659,-0.05609 -9.29e-4,-0.0501 -0.0063,-0.04922 -0.05006,0.008 -0.04631,0.06053 -0.05137,0.06098 -0.09066,0.008 -0.02289,-0.03086 -0.05806,-0.05609 -0.07815,-0.05609 -0.0201,0 -0.0077,0.02884 0.02757,0.0641 0.03526,0.03524 0.06433,0.08214 0.0646,0.104183 3.28e-4,0.02673 0.01085,0.02404 0.03156,-0.008 0.02512,-0.0389 0.03117,-0.03426 0.03156,0.02404 5.68e-4,0.08537 -0.08415,0.09822 -0.105633,0.01605 -0.01293,-0.04948 -0.01509,-0.04979 -0.01838,-0.0025 -0.003,0.04344 -0.03957,0.05368 -0.19442,0.05442 -0.167491,0.0011 -0.193368,-0.0075 -0.21261,-0.06811 z m 0.688608,-0.143988 c -0.0025,-0.124097 -0.0079,-0.13744 -0.02886,-0.07212 -0.03709,0.115839 -0.03709,0.224386 0,0.224386 0.01763,0 0.03062,-0.06852 0.02886,-0.152263 z m 0.147441,0.120208 c 0.0109,-0.01765 0.0054,-0.03203 -0.0122,-0.03203 -0.0176,0 -0.03767,-0.05409 -0.04459,-0.120208 -0.01152,-0.110126 -0.01303,-0.107439 -0.01795,0.03203 -0.005,0.141626 0.02835,0.195277 0.07475,0.120209 z m -0.560958,-0.01233 c 0,-0.0068 -0.03662,-0.03632 -0.08138,-0.06566 -0.07947,-0.05207 -0.08041,-0.05178 -0.04037,0.01233 0.03449,0.05523 0.121749,0.09345 0.12175,0.05333 z m -4.283742,-1.125601 c -0.01131,-0.02946 -0.05993,-0.04808 -0.125621,-0.04808 -0.06825,0 -0.119034,-0.02038 -0.139841,-0.0561 -0.03112,-0.05342 -0.03272,-0.05342 -0.03365,0 -5.16e-4,0.03086 -0.02262,0.0561 -0.04905,0.0561 -0.03781,0 -0.04808,-0.04453 -0.04808,-0.208355 0,-0.204441 0.0016,-0.208357 0.08563,-0.208357 0.0471,0 0.111423,0.02332 0.142952,0.05188 0.0644,0.05828 0.324139,0.06901 0.342429,0.01413 0.01384,-0.04153 0.102142,-0.0455 0.102142,-0.0046 0,0.01615 -0.01803,0.03684 -0.04006,0.04591 -0.02203,0.0091 0.01042,0.008 0.07212,-0.0025 0.0617,-0.01043 0.117,-0.03106 0.122877,-0.04591 0.01506,-0.03803 0.101506,-0.03369 0.101506,0.0051 0,0.01765 0.06522,0.03203 0.144934,0.03203 0.123489,0 0.150336,0.01187 0.181446,0.08014 0.02732,0.05994 0.02732,0.100324 0,0.160271 -0.04626,0.101529 -0.157752,0.106065 -0.197162,0.008 l -0.02899,-0.07212 -0.002,0.07212 c -0.0019,0.06665 -0.0168,0.07212 -0.196651,0.07212 -0.130254,0 -0.210519,0.01589 -0.2427,0.04808 -0.02645,0.02647 -0.07635,0.04808 -0.110908,0.04808 -0.03455,0 -0.07113,-0.02162 -0.08128,-0.04808 z m 0.253025,-0.194075 c 0.0084,-0.04396 0.0037,-0.08706 -0.0104,-0.09579 -0.01412,-0.0087 -0.03022,0.03127 -0.03577,0.08892 -0.0064,0.06641 -0.02564,0.101562 -0.05254,0.09598 -0.02335,-0.0046 -0.03288,0.0067 -0.02119,0.02559 0.03107,0.0503 0.101184,-0.01677 0.1199,-0.114697 z m 0.33762,0.01336 c -0.008,-0.02399 -0.02253,-0.0095 -0.03387,0.03384 -0.01394,0.05333 -0.0098,0.06583 0.01402,0.04205 0.01862,-0.01862 0.02756,-0.05279 0.01985,-0.07591 z m 0.210914,0.07536 c 0.0086,-0.01383 -0.01117,-0.02518 -0.04384,-0.02518 -0.03268,0 -0.0524,0.01135 -0.04384,0.02518 0.0086,0.01382 0.02829,0.02517 0.04384,0.02517 0.01555,0 0.03528,-0.01135 0.04384,-0.02517 z m -1.143856,-0.07699 c -0.01023,-0.02559 -0.01783,-0.01796 -0.01937,0.01935 -0.0014,0.03379 0.0062,0.05272 0.01683,0.04205 0.01065,-0.01063 0.01179,-0.03828 0.0025,-0.06144 z m 0.202486,0.01862 c 0,-0.0069 -0.02164,-0.01259 -0.04807,-0.01259 -0.02645,0 -0.04808,0.01398 -0.04808,0.03106 0,0.01708 0.02164,0.02275 0.04808,0.01259 0.02645,-0.01016 0.04807,-0.02415 0.04807,-0.03106 z m 0.207075,-0.06654 c -0.02742,-0.0274 -0.05783,-0.0419 -0.06759,-0.03214 -0.02436,0.02435 0.06295,0.114971 0.09316,0.09668 0.01336,-0.0081 0.0019,-0.03715 -0.02557,-0.06456 z m 0.423194,-0.01816 c -0.0089,-0.02203 -0.01616,-0.0041 -0.01616,0.04009 0,0.04406 0.0073,0.06211 0.01616,0.04009 0.0089,-0.02203 0.0089,-0.0581 0,-0.08014 z m -0.710632,-0.02368 c 0.01123,-0.01816 -0.0017,-0.02353 -0.03016,-0.01259 -0.05553,0.02131 -0.06569,0.04427 -0.01958,0.04427 0.01659,0 0.03897,-0.01424 0.04975,-0.03168 z m 1.166092,0.134979 c -0.05121,-0.131713 9.9e-4,-0.308932 0.09493,-0.322238 0.04112,-0.0058 0.102161,0.01419 0.135643,0.04453 0.05092,0.04608 0.12445,0.05464 0.449394,0.05231 0.335105,-0.0025 0.394379,-0.01073 0.43117,-0.06053 0.06903,-0.09347 0.116072,-0.01 0.104899,0.186098 l -0.0099,0.172864 -0.124957,0.01022 c -0.0783,0.0064 -0.134968,-0.0056 -0.151769,-0.03203 -0.0203,-0.03204 -0.02693,-0.03255 -0.0273,-0.002 -3.13e-4,0.02528 -0.04776,0.04009 -0.12871,0.04009 -0.08094,0 -0.128399,-0.01476 -0.128709,-0.04009 -3.41e-4,-0.02802 -0.0076,-0.02936 -0.02404,-0.0046 -0.01397,0.02115 -0.138014,0.03704 -0.30516,0.03916 -0.27819,0.0036 -0.282022,0.0025 -0.315536,-0.0837 z m 0.280054,-0.05629 c 0.0038,-0.026 -0.0062,-0.03916 -0.02229,-0.02925 -0.01608,0.01 -0.02924,0.04128 -0.02924,0.0696 0,0.06075 0.04147,0.02827 0.05154,-0.04035 z m 0.194941,-0.07104 c -0.0081,-0.03085 -0.01466,-0.0056 -0.01466,0.05609 0,0.06171 0.0066,0.08695 0.01466,0.0561 0.0081,-0.03085 0.0081,-0.08134 0,-0.112192 z m 0.383789,0.04808 c -0.0089,-0.02203 -0.01617,-0.0041 -0.01617,0.04009 0,0.04406 0.0073,0.06211 0.01617,0.04009 0.0089,-0.02203 0.0089,-0.0581 0,-0.08014 z m 0.288493,0 c -0.0089,-0.02203 -0.01617,-0.0041 -0.01617,0.04009 0,0.04406 0.0073,0.06211 0.01617,0.04009 0.0089,-0.02203 0.0089,-0.0581 0,-0.08014 z m -0.735114,0.05276 c -0.01065,-0.01063 -0.0383,-0.01182 -0.06144,-0.0025 -0.02557,0.01021 -0.01797,0.01785 0.01937,0.01935 0.03379,0.0015 0.05273,-0.0062 0.04207,-0.01682 z m 0.384656,0 c -0.01065,-0.01063 -0.0383,-0.01182 -0.06144,-0.0025 -0.02557,0.01021 -0.01797,0.01785 0.01937,0.01935 0.03379,0.0015 0.05272,-0.0062 0.04207,-0.01682 z m -0.557243,-0.132889 c 0.0082,-0.0132 -0.01983,-0.02611 -0.06222,-0.02868 -0.04239,-0.0025 -0.07706,0.0083 -0.07706,0.02404 0,0.03462 0.118322,0.03854 0.139278,0.0046 z m -0.05914,-0.104177 c -0.0109,-0.01764 -0.03699,-0.03183 -0.05799,-0.03157 -0.02294,2.46e-4 -0.01898,0.0129 0.0099,0.03157 0.06158,0.03978 0.07268,0.03978 0.04808,0 z m 4.07889,0.278476 c -0.0054,-0.267755 -0.0097,-0.03968 -0.0097,0.506866 1.3e-5,0.54653 0.0044,0.765607 0.0097,0.486831 0.0054,-0.278769 0.0053,-0.725936 -2.4e-5,-0.993697 z m 2.380139,0.506866 v -0.977672 h -1.169998 -1.169998 v 0.977672 0.977667 h 1.169998 1.169998 z M 31.68472,79.925974 c -0.03125,-0.08143 -1.34e-4,-0.353525 0.042,-0.367398 0.02207,-0.0073 0.0536,0.02043 0.07009,0.0616 0.02101,0.05242 0.03059,0.05858 0.03201,0.02059 0.003,-0.08161 0.0705,-0.107175 0.116562,-0.04417 0.03096,0.04236 0.09306,0.05693 0.259588,0.061 l 0.218895,0.0054 0.0098,0.152258 c 0.0096,0.149678 0.0082,0.152262 -0.08548,0.152262 -0.05239,0 -0.102525,-0.01806 -0.111416,-0.04009 -0.01293,-0.03204 -0.01667,-0.03204 -0.0187,0 -0.0015,0.02482 -0.05049,0.04009 -0.128734,0.04009 h -0.126204 l 0.01346,-0.120207 0.01346,-0.120203 -0.02778,0.105803 c -0.01528,0.05819 -0.03571,0.113728 -0.04539,0.123417 -0.03263,0.03266 -0.08596,-0.0241 -0.08918,-0.09488 -0.003,-0.0662 -0.0045,-0.06576 -0.02492,0.0075 -0.02557,0.0915 -0.09241,0.123815 -0.118027,0.05707 z m 0.461833,-0.154183 c -0.0288,-0.01801 -0.04694,-0.0099 -0.05439,0.02435 -0.0061,0.02828 0.0083,0.06358 0.03205,0.07845 0.02881,0.01801 0.04694,0.0099 0.05439,-0.02435 0.0061,-0.02828 -0.0083,-0.06358 -0.03205,-0.07845 z m 1.030612,-1.166665 V 77.915958 H 29.090189 25.00321 v 0.689176 0.689177 h 4.086979 4.086978 z m 0,-1.795068 v -0.97766 H 29.090189 25.00321 v 0.977667 0.977672 h 4.086979 4.086978 z m -2.339996,0.833426 c 0,-0.02647 -0.01442,-0.04808 -0.03205,-0.04808 -0.01763,0 -0.03205,-0.02162 -0.03205,-0.04808 0,-0.06387 -0.03172,-0.06079 -0.082,0.0079 -0.06473,0.08853 -0.09228,0.02095 -0.04957,-0.121642 0.04078,-0.136083 0.11993,-0.197412 0.163601,-0.126755 0.01827,0.02956 0.1052,0.03947 0.304449,0.03467 0.153383,-0.0036 0.271301,0.0056 0.262041,0.02054 -0.0093,0.01496 0.0099,0.02724 0.04256,0.02724 0.03267,0 0.0524,-0.01136 0.04384,-0.02517 -0.0086,-0.01383 0.02135,-0.02517 0.06646,-0.02517 0.07436,0 0.08203,0.01202 0.08203,0.128535 v 0.12854 l -0.276006,-0.0061 c -0.229136,-0.0051 -0.281119,0.0031 -0.306113,0.04778 -0.03796,0.06784 -0.187194,0.0724 -0.187194,0.0057 z m 0.476768,-0.13082 c 0.0066,-0.0059 0.0015,-0.03653 -0.01123,-0.06814 -0.02099,-0.05199 -0.02585,-0.05061 -0.05101,0.01465 -0.0153,0.03968 -0.04355,0.07212 -0.06279,0.07212 -0.01924,0 -0.02469,-0.01666 -0.0121,-0.03699 0.01428,-0.02311 0.0088,-0.02833 -0.01466,-0.01383 -0.06044,0.03735 -0.0054,0.08746 0.07039,0.06417 0.03818,-0.01171 0.07481,-0.02611 0.0814,-0.03198 z m 0.204196,0.02941 c -0.02215,-0.0089 -0.03211,-0.02941 -0.02215,-0.04556 0.01,-0.01615 0.0037,-0.0293 -0.01394,-0.0293 -0.01763,0 -0.04021,0.01321 -0.05017,0.0293 -0.01791,0.02894 0.03228,0.06178 0.09447,0.06178 0.01763,0 0.01394,-0.0073 -0.0082,-0.01625 z m -0.605089,-0.138978 c 0.01937,-0.02647 0.0033,-0.02089 -0.03561,0.01228 -0.03895,0.03323 -0.0613,0.07578 -0.04967,0.09459 0.01355,0.02192 0.02634,0.01749 0.03561,-0.01228 0.008,-0.02559 0.03031,-0.06814 0.04967,-0.09458 z m 0.128045,0.08013 c -0.01951,-0.05082 -0.0757,-0.0667 -0.0757,-0.02136 0,0.0339 0.03504,0.06945 0.06845,0.06945 0.01413,0 0.0174,-0.02162 0.0073,-0.04808 z m -0.284056,-0.08013 c 0.0109,-0.01765 0.0046,-0.03204 -0.01413,-0.03204 -0.01867,0 -0.03395,0.01444 -0.03395,0.03204 0,0.01765 0.0064,0.03203 0.01413,0.03203 0.0078,0 0.02305,-0.01444 0.03395,-0.03203 z m -4.100722,0.16397 c -0.03105,-0.05025 0.02364,-0.29219 0.06605,-0.29219 0.02413,0 0.04386,0.01573 0.04386,0.03503 0,0.02177 0.06374,0.0324 0.168287,0.02806 0.224279,-0.0092 0.25578,-0.0046 0.232398,0.03307 -0.03317,0.05365 0.02231,0.0357 0.06342,-0.02054 0.02943,-0.04024 0.0524,-0.04473 0.09801,-0.01925 0.03691,0.02063 0.08785,0.0226 0.133882,0.0051 0.04087,-0.01553 0.128176,-0.01708 0.194015,-0.0036 0.110346,0.02291 0.119708,0.03354 0.119708,0.135629 v 0.110755 l -0.552829,0.0051 c -0.304055,0.0025 -0.559117,-0.0051 -0.566803,-0.01749 z m 1.087577,-0.09987 c 0,-0.04112 -0.01839,-0.07852 -0.04087,-0.08307 -0.02248,-0.0046 -0.02608,-0.0011 -0.008,0.008 0.01807,0.009 0.03286,0.04272 0.03286,0.07506 0,0.0323 -0.01478,0.0661 -0.03286,0.07506 -0.01807,0.009 -0.01446,0.01259 0.008,0.008 0.02248,-0.0046 0.04087,-0.04195 0.04087,-0.08307 z m -0.945615,0.02213 c 0,-0.02306 -0.02118,-0.06996 -0.04707,-0.104177 -0.04451,-0.05885 -0.04712,-0.05659 -0.04807,0.04195 -7.43e-4,0.07169 0.01397,0.104177 0.04706,0.104177 0.02645,0 0.04808,-0.01888 0.04808,-0.04195 z m 0.270212,0.01357 c 0.0097,-0.01563 -0.01258,-0.03627 -0.04942,-0.04592 -0.03684,-0.0096 -0.05756,-0.03276 -0.04606,-0.05133 0.01272,-0.02059 0.0014,-0.02636 -0.02883,-0.01476 -0.02736,0.01047 -0.04975,0.03281 -0.04975,0.04959 0,0.01677 0.01453,0.02157 0.03228,0.01058 0.01775,-0.01099 0.04093,0.0025 0.05151,0.03018 0.02127,0.05544 0.06318,0.06552 0.09026,0.02172 z m 0.114444,-0.03571 c 0,-0.01765 -0.01528,-0.03203 -0.03395,-0.03203 -0.01867,0 -0.02503,0.01444 -0.01413,0.03203 0.0109,0.01765 0.02618,0.03204 0.03395,0.03204 0.0078,0 0.01413,-0.01439 0.01413,-0.03204 z m 0.12822,0 c 0,-0.01765 -0.01443,-0.03203 -0.03205,-0.03203 -0.01763,0 -0.03205,0.01444 -0.03205,0.03203 0,0.01765 0.01443,0.03204 0.03205,0.03204 0.01763,0 0.03205,-0.01439 0.03205,-0.03204 z m 0.217037,-0.0061 c -0.01981,-0.05944 -0.08882,-0.06929 -0.08882,-0.01269 0,0.02792 0.02284,0.05077 0.05075,0.05077 0.02792,0 0.04504,-0.01713 0.03806,-0.03808 z m 0.295838,0.08512 c 0,-0.094 0.09322,-0.271434 0.14261,-0.271434 0.02734,0 0.04972,0.01444 0.04972,0.03204 0,0.01765 0.07212,0.03203 0.160273,0.03203 0.08815,0 0.160274,-0.01444 0.160274,-0.03203 0,-0.01765 0.02164,-0.03204 0.04807,-0.03204 0.02645,0 0.04808,0.01444 0.04808,0.03204 0,0.01765 0.02885,0.03203 0.06411,0.03203 0.03526,0 0.06411,-0.01444 0.06411,-0.03203 0,-0.04561 0.08823,-0.03983 0.103774,0.0068 0.0084,0.02512 0.0675,0.0355 0.167389,0.02936 0.147912,-0.0091 0.153589,-0.0063 0.134402,0.06532 -0.01101,0.04117 -0.02023,0.10006 -0.02047,0.130908 -3.95e-4,0.05041 -0.04094,0.0561 -0.398771,0.0561 -0.352411,0 -0.400024,-0.0065 -0.412993,-0.0561 -0.01396,-0.05342 -0.01484,-0.05342 -0.01838,0 -0.0046,0.06921 -0.131937,0.07695 -0.131937,0.008 0,-0.02647 -0.01288,-0.04808 -0.02863,-0.04808 -0.01575,0 -0.03693,0.02162 -0.04708,0.04808 -0.0241,0.06282 -0.08457,0.06208 -0.08457,-0.0011 z m 0.488835,-0.0041 c -0.02203,-0.0089 -0.04006,-0.03658 -0.04006,-0.06158 0,-0.02497 -0.02164,-0.0454 -0.04808,-0.0454 -0.06707,0 -0.0604,0.08825 0.008,0.106122 0.07687,0.02007 0.129174,0.02064 0.08014,0.0011 z m 0.299128,-0.01084 c 0.05118,0 0.05959,-0.0883 0.01512,-0.158599 -0.02327,-0.03679 -0.03799,-0.02683 -0.07098,0.04808 -0.0229,0.05197 -0.05633,0.10667 -0.07433,0.121559 -0.01899,0.01573 -0.0081,0.01909 0.02602,0.008 0.03229,-0.01048 0.07917,-0.01904 0.104178,-0.01904 z m -0.159834,-0.03699 c 0.01352,-0.02187 0.0089,-0.02833 -0.0114,-0.01584 -0.01885,0.01166 -0.04157,0.0031 -0.05051,-0.01909 -0.0098,-0.0243 -0.01724,-0.01801 -0.01877,0.01584 -0.0028,0.06343 0.0461,0.07502 0.08067,0.01909 z m -0.483882,-0.09121 c 0.0109,-0.01765 0.0046,-0.03203 -0.01413,-0.03203 -0.01867,0 -0.03395,0.01444 -0.03395,0.03203 0,0.01765 0.0064,0.03204 0.01413,0.03204 0.0078,0 0.02305,-0.01444 0.03395,-0.03204 z m 1.063148,0.170955 c -0.01175,-0.01176 -0.02137,-0.06359 -0.02137,-0.115193 0,-0.06686 0.01842,-0.09864 0.06411,-0.110585 0.03526,-0.0092 0.06411,-0.02951 0.06411,-0.0451 0,-0.01558 0.02164,-0.02832 0.04808,-0.02832 0.02645,0 0.04808,0.01444 0.04808,0.03204 0,0.01765 0.028,0.03204 0.06222,0.03204 0.08302,0 0.101732,0.03772 0.07788,0.156978 -0.01887,0.09434 -0.02766,0.09946 -0.170816,0.09946 -0.08301,0 -0.160541,-0.0096 -0.172294,-0.02136 z m 0.08281,-0.03193 c -0.02204,-0.0089 -0.04006,-0.039 -0.04006,-0.06692 0,-0.02792 -0.009,-0.04174 -0.01998,-0.03075 -0.03127,0.03127 0.01334,0.119207 0.05905,0.11639 0.03217,-0.002 0.03239,-0.0061 9.91e-4,-0.01867 z m 0.162306,-0.08506 c 0.03509,-0.01295 0.04864,-0.03684 0.0342,-0.06019 -0.01745,-0.02822 -0.02724,-0.02879 -0.03616,-0.002 -0.0067,0.02018 -0.02984,0.02993 -0.05136,0.02167 -0.02293,-0.0088 -0.0414,0.01501 -0.0446,0.05749 -0.003,0.03988 0.0047,0.05721 0.01716,0.03853 0.01244,-0.01867 0.04879,-0.04365 0.08075,-0.05546 z m 0.156496,-0.01419 c 0.0084,-0.130816 0.02005,-0.153449 0.08365,-0.162463 0.04064,-0.0058 0.09522,0.0072 0.121299,0.02889 0.03762,0.03122 0.06415,0.03039 0.128539,-0.0041 0.06082,-0.03255 0.08692,-0.03405 0.104237,-0.0061 0.01459,0.02358 0.146848,0.04076 0.358531,0.04659 l 0.335423,0.0092 v 0.112195 0.112191 l -0.214644,0.0046 c -0.174942,0.0041 -0.21724,-0.0051 -0.228678,-0.04808 -0.01283,-0.04829 -0.01435,-0.04824 -0.01775,0.0011 -0.0032,0.04654 -0.04917,0.05403 -0.342038,0.05582 l -0.33832,0.002 0.0098,-0.15199 z m 0.514621,0.09924 c -0.05063,-0.02043 -0.0529,-0.139039 -0.0027,-0.139039 0.02057,0 0.02901,-0.0084 0.01877,-0.01862 -0.01024,-0.01027 -0.05026,-0.0015 -0.08892,0.01899 -0.05084,0.02719 -0.07999,0.02792 -0.10532,0.0025 -0.04847,-0.0485 -0.07606,-0.04385 -0.09927,0.01661 -0.01482,0.03865 -0.0062,0.04643 0.03408,0.03096 0.02985,-0.01145 0.06576,-0.002 0.0805,0.02048 0.02151,0.03328 0.03188,0.03297 0.05421,-0.0015 0.02108,-0.03266 0.03174,-0.02698 0.04509,0.02404 0.0096,0.03673 0.03686,0.06568 0.06054,0.06429 0.03239,-0.002 0.03313,-0.0066 0.003,-0.01867 z m -0.347889,-0.03751 c 0.0091,-0.0147 -0.0039,-0.02673 -0.02875,-0.02673 -0.02489,0 -0.03783,0.01202 -0.02875,0.02673 0.0091,0.0147 0.02202,0.02673 0.02875,0.02673 0.0067,0 0.01967,-0.01202 0.02875,-0.02673 z m 0.468095,-0.0195 c 0,-0.02538 -0.01443,-0.05511 -0.03205,-0.066 -0.01763,-0.01088 -0.03205,0.0099 -0.03205,0.04618 0,0.03632 0.01443,0.066 0.03205,0.066 0.01763,0 0.03205,-0.02079 0.03205,-0.04618 z m 0.118061,-0.02394 c -0.01023,-0.02559 -0.01783,-0.01795 -0.01937,0.01935 -0.0014,0.03379 0.0062,0.05272 0.01683,0.04205 0.01065,-0.01068 0.01179,-0.03828 0.0025,-0.06144 z m 0.09616,0 c -0.01023,-0.02559 -0.01782,-0.01795 -0.01937,0.01935 -0.0014,0.03379 0.0062,0.05272 0.01683,0.04205 0.01065,-0.01068 0.01179,-0.03828 0.0025,-0.06144 z m 0.07824,-0.06664 c -0.03166,-0.03142 -0.03534,-0.02776 -0.01795,0.01796 0.01204,0.03162 0.02996,0.04942 0.03983,0.03952 0.0099,-0.0099 2.1e-5,-0.03575 -0.02189,-0.05747 z m 0.147616,-0.01084 c -0.01065,-0.01068 -0.0383,-0.01181 -0.06144,-0.0025 -0.02557,0.01022 -0.01797,0.01786 0.01937,0.01935 0.03379,0.0015 0.05272,-0.0062 0.04207,-0.01682 z M 26.26504,77.162898 c -0.0089,-0.02327 -0.0116,-0.09053 -0.0059,-0.149498 l 0.01027,-0.107232 0.518573,-0.0087 c 0.516814,-0.0087 0.51862,-0.0084 0.532551,0.06411 l 0.01397,0.07279 0.0044,-0.07212 c 0.004,-0.06712 0.01914,-0.07212 0.217201,-0.07212 0.160935,0 0.222282,-0.0129 0.251575,-0.05298 0.05014,-0.06857 0.116141,-0.02755 0.101339,0.06296 -0.0063,0.0386 -0.0053,0.05212 0.0022,0.03008 0.02466,-0.0721 0.137244,-0.04422 0.170071,0.04215 0.06903,0.181578 0.01358,0.303984 -0.09055,0.199858 -0.02992,-0.02993 -0.03847,-0.02977 -0.03847,5.16e-4 0,0.05927 -1.664401,0.04943 -1.687197,-0.01 z m 0.430463,-0.133117 c -0.0093,-0.04406 -0.0174,-0.03601 -0.03108,0.03106 -0.01193,0.0585 -0.0075,0.07957 0.01261,0.0595 0.01709,-0.01708 0.0254,-0.05786 0.01847,-0.09058 z m 0.714751,-0.01419 c -0.02049,-0.05128 -0.03162,-0.05933 -0.03297,-0.02394 -0.0027,0.07106 0.0388,0.176646 0.05285,0.134484 0.0061,-0.01826 -0.0028,-0.068 -0.01988,-0.110571 z m 0.435977,-0.02069 c -0.0081,-0.03117 -0.01531,-0.01341 -0.01596,0.03947 -6.81e-4,0.05289 0.006,0.07841 0.01477,0.05671 0.0088,-0.02172 0.0093,-0.06498 0.0012,-0.09617 z m -1.391906,0.02585 c 0.01132,-0.04329 0.0029,-0.05662 -0.02831,-0.04468 -0.02445,0.0094 -0.04445,0.03715 -0.04445,0.06171 0,0.06662 0.05421,0.05392 0.07277,-0.01708 z m 0.167641,0.02966 c 0.0109,-0.01765 0.0046,-0.03204 -0.01413,-0.03204 -0.01867,0 -0.03395,0.01444 -0.03395,0.03204 0,0.01765 0.0064,0.03203 0.01413,0.03203 0.0078,0 0.02305,-0.01444 0.03395,-0.03203 z m 0.28934,-0.02585 c -0.0099,-0.0099 -0.03573,-2e-5 -0.05748,0.02187 -0.03142,0.03167 -0.02774,0.03534 0.01795,0.01795 0.03161,-0.01202 0.04941,-0.02998 0.03954,-0.03983 z m 1.265314,0.02528 v -0.159667 h 0.222221 0.222219 l -0.0061,0.152257 -0.0061,0.152258 -0.21616,0.0074 -0.21616,0.0074 z m 0.265172,-0.0015 c -0.01267,-0.04845 -0.02685,-0.05669 -0.05283,-0.0307 -0.02597,0.02595 -0.02267,0.04359 0.01231,0.06574 0.0263,0.01661 0.05007,0.03044 0.05283,0.0307 0.0027,2.69e-4 -0.0028,-0.0293 -0.01231,-0.06574 z m 0.215649,0.108574 c 0,-0.02961 0.01706,-0.100995 0.0379,-0.158651 l 0.0379,-0.104822 0.587161,-2.06e-4 0.587162,-2.07e-4 v 0.09474 c 0,0.05211 0.01557,0.09474 0.0346,0.09474 0.02164,0 0.02682,-0.03545 0.01381,-0.09468 l -0.0208,-0.09468 0.383802,0.0015 0.383803,0.0015 0.03514,0.139515 c 0.04526,0.179772 0.04601,0.175242 -0.02898,0.175242 -0.03931,0 -0.06449,-0.02172 -0.06508,-0.05609 -9.29e-4,-0.05237 -0.0031,-0.05248 -0.03276,-0.0015 -0.02871,0.04922 -0.117014,0.05447 -0.912584,0.05407 -0.804317,-4.09e-4 -0.880883,-0.0051 -0.881773,-0.05451 -8.67e-4,-0.04943 -0.0038,-0.04927 -0.03365,0.002 -0.04162,0.07145 -0.125652,0.07297 -0.125652,0.002 z m 0.470663,-0.08041 c -0.01023,-0.0256 -0.01783,-0.01796 -0.01937,0.01935 -0.0014,0.03379 0.0062,0.05272 0.01683,0.0421 0.01065,-0.01068 0.01179,-0.03828 0.0025,-0.06144 z m 0.224384,0 c -0.01023,-0.0256 -0.01783,-0.01796 -0.01937,0.01935 -0.0014,0.03379 0.0062,0.05272 0.01683,0.0421 0.01065,-0.01068 0.01179,-0.03828 0.0025,-0.06144 z m -0.407045,-0.01801 c -2.86e-4,-0.03198 -0.01076,-0.04236 -0.02441,-0.02404 -0.01316,0.01765 -0.03697,0.04287 -0.05293,0.0561 -0.01596,0.01321 -0.005,0.02404 0.02441,0.02404 0.0297,0 0.05321,-0.02492 0.05294,-0.05609 z m 0.641586,-0.02673 c 0,-0.0566 -0.06901,-0.04674 -0.08882,0.01269 -0.007,0.02095 0.01015,0.03808 0.03806,0.03808 0.02792,0 0.05075,-0.02286 0.05075,-0.05077 z m 0.05328,-0.05342 c -0.0089,-0.02203 -0.01617,-0.0041 -0.01617,0.04009 0,0.04406 0.0073,0.06211 0.01617,0.04009 0.0089,-0.02203 0.0089,-0.0581 0,-0.08014 z m 0.224383,0 c -0.0089,-0.02203 -0.01617,-0.0041 -0.01617,0.04009 0,0.04406 0.0073,0.06211 0.01617,0.04009 0.0089,-0.02203 0.0089,-0.0581 0,-0.08014 z m 0.288493,0 c -0.0089,-0.02203 -0.01617,-0.0041 -0.01617,0.04009 0,0.04406 0.0073,0.06211 0.01617,0.04009 0.0089,-0.02203 0.0089,-0.0581 0,-0.08014 z m -0.790543,0.02595 c 0,-0.03384 -0.06152,-0.04803 -0.07981,-0.01847 -0.01108,0.0179 0.0024,0.03255 0.02984,0.03255 0.02748,0 0.04997,-0.0063 0.04997,-0.01413 z m 1.463269,0.118309 c -0.01059,-0.0485 -0.0285,-0.120604 -0.0398,-0.16027 -0.01866,-0.06551 -0.0097,-0.07212 0.09821,-0.07212 h 0.118747 l -0.02254,0.136232 c -0.01239,0.07492 -0.02894,0.147053 -0.03676,0.160271 -0.03239,0.05476 -0.0999,0.01806 -0.117852,-0.06411 z m 0.224947,0.06678 c -0.02958,-0.02956 -0.02595,-0.210285 0.0052,-0.259376 0.01875,-0.02956 0.142525,-0.03921 0.462556,-0.03606 l 0.436949,0.0041 0.0338,0.09696 c 0.01859,0.05333 0.0338,0.12366 0.0338,0.156288 0,0.07296 -0.08242,0.07819 -0.121851,0.0077 -0.02562,-0.04582 -0.03101,-0.04607 -0.0478,-0.002 -0.01513,0.03941 -0.07997,0.04963 -0.323176,0.05097 -0.289761,0.0015 -0.304924,-0.0015 -0.318358,-0.06985 l -0.01411,-0.07149 -0.02384,0.07212 c -0.02323,0.07031 -0.08019,0.09377 -0.123207,0.05077 z m 0.728374,-0.157262 c 0.01349,-0.03513 0.0032,-0.04726 -0.03399,-0.04009 -0.02933,0.0057 -0.05933,0.02837 -0.06667,0.0504 -0.01963,0.05894 0.07791,0.04891 0.10065,-0.01031 z m -0.493309,-0.02778 c 0,-0.03384 -0.06152,-0.04803 -0.07981,-0.01847 -0.01108,0.0179 0.0024,0.03255 0.02984,0.03255 0.02749,0 0.04997,-0.0063 0.04997,-0.01414 z m 0.204559,-0.0356 c 0.01095,-0.02853 0.0056,-0.04138 -0.01261,-0.03018 -0.01743,0.01078 -0.03169,0.03318 -0.03169,0.04973 0,0.04613 0.02298,0.03596 0.04429,-0.01961 z m -4.78992,-0.329702 c -0.08456,-0.06846 -0.05747,-0.147935 0.04159,-0.122029 0.06129,0.01605 0.06377,0.0065 0.04496,-0.17351 l -0.01991,-0.190473 h 0.158253 0.158252 l 0.01138,0.200343 0.01138,0.200343 0.0062,-0.198413 0.0062,-0.198408 0.463568,-0.002 0.463567,-0.002 0.03008,0.120171 c 0.0554,0.221311 0.06972,0.388118 0.03514,0.409483 -0.04882,0.03018 -0.126683,-0.04576 -0.12814,-0.124955 -9.91e-4,-0.05277 -0.01177,-0.04401 -0.0477,0.0388 -0.07333,0.168845 -0.129115,0.112412 -0.116907,-0.118258 0.0067,-0.125687 -0.002,-0.197072 -0.02404,-0.197072 -0.02072,0 -0.03447,0.07595 -0.03447,0.190437 0,0.10474 -0.01506,0.19974 -0.03346,0.211116 -0.07049,0.04354 -0.126834,-0.05741 -0.132348,-0.237191 l -0.0055,-0.180392 -0.01851,0.208355 c -0.01383,0.155612 -0.03068,0.208362 -0.06659,0.208362 -0.03393,0 -0.05336,-0.04716 -0.06604,-0.160277 l -0.01796,-0.160275 -0.0141,0.160275 c -0.0101,0.114832 -0.02773,0.160277 -0.06218,0.160277 -0.03591,0 -0.05277,-0.05275 -0.06659,-0.208362 l -0.0185,-0.208355 -0.0055,0.183189 c -0.0045,0.149038 -0.01788,0.189796 -0.07179,0.218648 -0.05139,0.02749 -0.08339,0.02424 -0.142558,-0.01455 -0.061,-0.03998 -0.07866,-0.0838 -0.08808,-0.218648 l -0.01179,-0.168655 -0.0059,0.183189 c -0.0047,0.144534 -0.01901,0.190189 -0.06793,0.216367 -0.0803,0.04298 -0.07878,0.04323 -0.16393,-0.02575 z m 0.98615,-0.285669 c -0.0073,-0.0485 -0.01335,-0.0088 -0.01335,0.08815 0,0.09696 0.006,0.13663 0.01335,0.08815 0.0073,-0.0485 0.0073,-0.127818 0,-0.1763 z m 0.699935,0.304521 c -0.0068,-0.02203 -0.01986,-0.143858 -0.02904,-0.270717 l -0.01669,-0.230643 0.28648,-4.59e-4 c 0.263296,-4.23e-4 0.286481,0.0046 0.286481,0.06236 0,0.04143 -0.02181,0.06282 -0.06411,0.06282 -0.07299,0 -0.08212,0.03328 -0.02484,0.09055 0.03021,0.03018 0.03062,0.05311 0.0018,0.0993 -0.03154,0.05052 -0.02717,0.06273 0.02763,0.07707 0.09789,0.02559 0.06349,0.131403 -0.04684,0.144095 -0.0494,0.0057 -0.107458,-0.0041 -0.129021,-0.02218 -0.0246,-0.02043 -0.05672,-0.02146 -0.08621,-0.0025 -0.06799,0.04298 -0.191206,0.03741 -0.205618,-0.0093 z m 0.133151,-0.320546 c -0.0076,-0.03968 -0.01389,-0.0072 -0.01389,0.07212 0,0.07934 0.0062,0.111788 0.01389,0.07212 0.0076,-0.03968 0.0076,-0.104581 0,-0.144246 z m 0.60549,0.333485 c -0.0092,-0.01491 -0.0041,-0.105075 0.01126,-0.200343 0.01661,-0.102639 0.01614,-0.185618 -0.0011,-0.203665 -0.01605,-0.01677 -0.02918,-0.04762 -0.02918,-0.06862 0,-0.05066 0.859605,-0.05789 0.920043,-0.0077 0.02989,0.02481 0.0416,0.02441 0.0416,-0.0015 0,-0.02059 0.05479,-0.03596 0.128219,-0.03596 0.08094,0 0.128399,0.01476 0.128709,0.04009 3.55e-4,0.02842 0.0073,0.02961 0.02404,0.0041 0.01296,-0.01981 0.105834,-0.03668 0.206403,-0.0374 l 0.182855,-0.0015 0.01131,0.197697 0.01131,0.197696 0.0062,-0.200343 c 0.0054,-0.176915 0.01368,-0.200343 0.07029,-0.200343 0.03526,0 0.06411,0.01734 0.06411,0.03848 0,0.02993 0.0085,0.02993 0.03847,0 0.0563,-0.05631 0.55186,-0.05154 0.599411,0.0057 0.02018,0.0243 0.03998,0.143317 0.044,0.264454 0.0059,0.177028 -0.002,0.220248 -0.04046,0.220248 -0.02741,0 -0.056,-0.04097 -0.06709,-0.09616 -0.01879,-0.09353 -0.02755,-0.08715 -0.072,0.05247 -0.01156,0.03627 -0.04955,0.05087 -0.12328,0.04721 l -0.106577,-0.0053 -0.0095,-0.199476 c -0.0083,-0.173225 -0.01778,-0.199481 -0.07212,-0.199481 -0.05061,0 -0.06258,0.02234 -0.06258,0.116674 0,0.07178 0.02051,0.131661 0.05329,0.155636 0.07944,0.05809 0.0314,0.158455 -0.0617,0.128902 -0.08267,-0.02626 -0.09871,-0.02631 -0.3689,-0.0011 -0.187773,0.01744 -0.202935,0.01388 -0.230365,-0.05444 l -0.02937,-0.07313 -0.002,0.07212 c -0.0011,0.03968 -0.01356,0.07212 -0.02767,0.07212 -0.04659,0 -0.102533,-0.07586 -0.10519,-0.142641 -0.002,-0.05036 -0.01326,-0.04138 -0.04817,0.03848 -0.04942,0.113006 -0.10017,0.1337 -0.130979,0.05341 -0.01379,-0.03591 -0.02626,-0.03978 -0.04269,-0.01321 -0.01276,0.02064 -0.07206,0.03988 -0.131771,0.04277 l -0.108564,0.0052 -0.01764,-0.208355 -0.01764,-0.208356 -0.01441,0.208356 c -0.0109,0.157427 -0.02617,0.208355 -0.0625,0.208355 -0.03294,0 -0.05378,-0.04546 -0.06618,-0.144245 l -0.0181,-0.14425 -0.01396,0.14343 c -0.01335,0.137208 -0.0186,0.143657 -0.121192,0.148661 -0.09173,0.0046 -0.113566,-0.0093 -0.151005,-0.09534 -0.03347,-0.07691 -0.04406,-0.08512 -0.04502,-0.03487 -0.0019,0.101542 -0.101299,0.18211 -0.142457,0.115513 z m 0.804919,-0.333485 c -0.0076,-0.03968 -0.01389,-0.0072 -0.01389,0.07212 0,0.07934 0.0063,0.111788 0.01389,0.07212 0.0076,-0.03968 0.0076,-0.104581 0,-0.144246 z m 0.54493,0 c -0.0076,-0.03968 -0.01389,-0.0072 -0.01389,0.07212 0,0.07934 0.0062,0.111788 0.01389,0.07212 0.0076,-0.03968 0.0076,-0.104581 0,-0.144246 z m 0.137651,0.07401 c 0,-0.06947 -0.01443,-0.135242 -0.03205,-0.146138 -0.01958,-0.01207 -0.03205,0.03704 -0.03205,0.126326 0,0.08038 0.01443,0.146139 0.03205,0.146139 0.01763,0 0.03205,-0.05685 0.03205,-0.126327 z m -1.176443,-0.133349 c -0.01493,-0.01491 -0.01995,0.03379 -0.01115,0.108254 0.0156,0.132064 0.01628,0.13273 0.02714,0.02714 0.0061,-0.05954 -0.0011,-0.12047 -0.016,-0.135396 z m 0.653609,0.04329 c -0.0081,-0.03085 -0.01465,-0.0056 -0.01465,0.0561 0,0.06171 0.0066,0.08695 0.01465,0.05609 0.0081,-0.03086 0.0081,-0.08134 0,-0.11219 z m 1.218198,5.16e-4 c -0.0081,-0.03117 -0.01531,-0.01341 -0.01596,0.03947 -6.81e-4,0.0529 0.006,0.07841 0.01478,0.05671 0.0088,-0.02172 0.0093,-0.06498 0.0012,-0.09617 z m -0.929904,-0.01465 c -0.01023,-0.02559 -0.01782,-0.01795 -0.01937,0.01935 -0.0014,0.03379 0.0062,0.05272 0.01683,0.04205 0.01065,-0.01063 0.01179,-0.03828 0.0025,-0.06144 z m -5.734132,-0.53066 c -0.135796,-0.006 -0.36659,-0.0061 -0.512876,-7.2e-5 -0.146284,0.0059 -0.03518,0.01083 0.246903,0.01088 0.282081,4.2e-5 0.40177,-0.0046 0.265973,-0.01084 z m 6.508079,-2.43e-4 c -1.122549,-0.0046 -2.968902,-0.0046 -4.103005,0 -1.134104,0.0046 -0.215655,0.0085 2.040999,0.0085 2.256653,0 3.184556,-0.0036 2.062006,-0.0085 z" id="path1556" inkscape:connector-curvature="0"/>
  </g>
</svg>